<?xml version="1.0" encoding="UTF-8"?>
<!-- Generator: Adobe Illustrator 14.0.0, SVG Export Plug-In . SVG Version: 6.00 Build 43363)  -->
<svg width="442.48px" height="595.28px" enable-background="new 0 0 442.478 595.275" i:pageBounds="70.957 718.8887 513.4346 123.6133" i:rulerOrigin="-70.957 -123.6133" i:viewOrigin="70.957 718.8887" version="1.1" viewBox="0 0 442.48 595.28" xml:space="preserve" xmlns="http://www.w3.org/2000/svg" xmlns:i="&amp;ns_ai;" xmlns:ns="&amp;ns_vars;">
<metadata>
	<ns:variableSets>
		<ns:variableSet locked="none" varSetName="binding1">
			<ns:variables/>
			<ns:sampleDataSets/>
		</ns:variableSet>
	</ns:variableSets>
</metadata>
<g>
				
				<path d="m203.04 576.9c-35.249-2.9253-75.461-16.44-94.515-31.766-13.285-10.685-26.861-38.993-33.18-69.184-2.3239-11.103-2.622-14.761-2.5723-31.558 0.0486-16.406 0.4037-20.638 2.6011-31 4.276-20.163 9.7813-33.127 25.692-60.5 3.6765-6.325 10.086-17.575 14.244-25 4.1575-7.425 9.9204-16.65 12.807-20.5 7.0641-9.4231 10.584-17.291 12.404-27.729 1.867-10.706 4.8227-17.559 11.912-27.619 13.388-18.998 29.425-29.748 44.107-29.565 14.175 0.17643 36.645 9.0818 50.236 19.91 8.8019 7.0127 13.627 12.785 46.02 55.062 41.872 54.647 45.186 59.678 54.125 82.161 7.7502 19.492 11.146 34.085 14.184 60.959 1.0118 8.9487 1.0166 13.538 0.0239 23-2.6956 25.694-10.209 44.619-24.86 62.618-23.589 28.979-61.43 47.713-101.23 50.115-5.775 0.34855-13.2 0.80278-16.5 1.0094s-10.275 0.0209-15.5-0.41275z" fill="#f1d089"/><path d="m181.46 232.63s-18.6-66.273 2.328-101.15c20.928-34.882 24.413-6.979 24.413-3.489 0 3.489-33.715 30.23-16.277 94.171-4.651 15.115-10.464 10.468-10.464 10.468z" fill="#502C14" i:knockout="Off"/>
				
					
				
				<path d="m331.54 223.2c-20.288-1.066-43.721-5.3381-51.751-9.4345-6.5827-3.3582-24.195-22.797-38.391-42.372-9.0123-12.427-8.6238-11.388-6.57-17.581 2.206-6.6526 10.729-20.087 16.004-25.225l3.9076-3.8064 10.1 2.0248c19.651 3.9394 35.26 11.91 49.768 25.414 17.822 16.588 29.345 39.886 30.876 62.424l0.62803 9.25-4.2859-0.18908c-2.3573-0.104-6.9859-0.33096-10.286-0.50436z" fill="#6f8023"/><path d="m155.21 134.32c-24.609-7.56-36.807-15.905-40.218-27.515-0.55155-1.8771-1.4897-8.588-2.0848-14.913-2.2672-24.096-2.2966-23.081 0.85808-29.574 5.1138-10.525 12.031-18.766 26.855-31.994 11.48-10.244 19.156-15.432 22.833-15.431 3.176 8.11e-4 13.7 4.5192 18.52 7.9514 2.6892 1.9149 2.7365 1.9148 4.383-0.0082 2.0524-2.3971 3.914-2.4341 9.7016-0.19318 6.1161 2.3681 11.472 5.8172 13.225 8.5168 3.7374 5.7542 5.0557 12.768 4.4478 23.663-1.1062 19.822-6.5131 34.829-18.04 50.07-11.793 15.592-26.556 33.006-27.938 32.954-0.66709-0.0252-6.3118-1.6122-12.544-3.5267z" fill="#506d25"/><path d="m239.59 153.57s26.74 5.813 47.669 19.766c20.927 13.95 46.503 38.367 51.158 38.367 4.646 0-34.882-25.579-61.623-40.694s-37.204-17.439-37.204-17.439z" fill="#94B42A" i:knockout="Off"/>
				<path d="m165.18 134.97s-9.302-75.575 9.302-97.665c18.604-22.089 11.625-3.485 11.625-3.485s-18.604-19.767-20.927 101.15z" fill="#94B42A" i:knockout="Off"/>
				<path d="m161.69 126.83s10.468 34.881 18.604 27.902c8.136-6.975 10.464-13.95 10.464-13.95s8.141 11.626 22.089 12.788c13.95 1.162 23.252 1.162 23.252 1.162s-40.69-6.975-34.877-17.439c5.812-10.463-9.303-5.812-9.303-5.812l-10.464 16.277-19.765-20.928z" fill="#502C14" i:knockout="Off"/>
			</g>

</svg>
